M48
;DRILL file {KiCad (5.0.0)} date 10/07/18 19:08:35
;FORMAT={-:-/ absolute / metric / decimal}
FMAT,2
METRIC,TZ
T1C0.400
T2C0.700
T3C0.800
T4C1.000
T5C1.100
T6C1.200
T7C1.500
T8C1.520
T9C3.200
T10C3.400
T11C3.500
%
G90
G05
M71
T1
X194.103Y-86.567
X194.31Y-82.55
X196.643Y-82.343
X196.85Y-86.36
X199.183Y-88.004
T2
X196.85Y-69.85
X204.47Y-69.85
X171.45Y-60.96
X179.07Y-60.96
X175.26Y-80.01
X175.26Y-87.63
X171.45Y-66.04
X179.07Y-66.04
X171.45Y-63.5
X179.07Y-63.5
X171.45Y-68.58
X179.07Y-68.58
T3
X147.32Y-59.69
X147.32Y-67.31
X198.12Y-101.6
X204.47Y-101.6
X158.75Y-82.55
X158.75Y-92.71
X199.47Y-74.93
X204.47Y-74.93
X121.92Y-82.55
X121.92Y-87.63
X129.54Y-82.55
X129.54Y-87.63
X191.563Y-69.154
X191.563Y-74.034
X158.75Y-96.52
X158.75Y-99.06
X158.75Y-101.6
X199.183Y-64.77
X214.423Y-64.77
X153.67Y-104.14
X153.67Y-114.3
X77.47Y-69.89
X77.47Y-72.39
X118.11Y-57.15
X120.65Y-57.15
X123.19Y-57.15
X82.55Y-83.82
X82.55Y-99.06
X158.75Y-104.14
X158.75Y-114.3
X76.2Y-114.38
X76.2Y-119.38
X209.55Y-91.44
X209.55Y-101.6
X204.47Y-110.49
X212.09Y-110.49
X153.67Y-82.55
X153.67Y-92.71
X184.15Y-91.44
X184.15Y-101.6
X88.9Y-83.82
X88.9Y-99.06
X186.69Y-91.44
X186.69Y-101.6
X207.01Y-91.44
X207.01Y-101.6
X127.Y-57.15
X127.Y-67.31
X95.25Y-91.44
X105.41Y-91.44
X140.97Y-82.55
X140.97Y-85.09
X140.97Y-87.63
X148.59Y-82.55
X148.59Y-85.09
X148.59Y-87.63
X138.43Y-62.31
X138.43Y-67.31
X82.55Y-57.23
X82.55Y-62.23
X134.62Y-104.14
X134.62Y-114.3
X140.97Y-109.22
X140.97Y-111.76
X140.97Y-114.3
X148.59Y-109.22
X148.59Y-111.76
X148.59Y-114.3
X190.293Y-58.794
X190.293Y-61.294
X196.85Y-91.44
X196.85Y-96.44
X132.08Y-57.15
X132.08Y-67.31
X168.91Y-91.44
X168.91Y-101.6
X192.833Y-58.834
X192.833Y-61.334
X134.62Y-82.55
X134.62Y-87.63
X128.27Y-104.14
X128.27Y-114.3
X120.65Y-67.39
X120.65Y-72.39
X181.403Y-80.384
X181.403Y-88.004
X183.943Y-80.384
X183.943Y-88.004
X186.483Y-80.384
X186.483Y-88.004
X189.023Y-80.384
X189.023Y-88.004
X191.563Y-80.384
X191.563Y-88.004
X194.103Y-80.384
X194.103Y-88.004
X196.643Y-80.384
X196.643Y-88.004
X199.183Y-80.384
X199.183Y-88.004
X201.723Y-80.384
X201.723Y-88.004
X204.263Y-80.384
X204.263Y-88.004
X206.803Y-80.384
X206.803Y-88.004
X209.343Y-80.384
X209.343Y-88.004
X211.883Y-80.384
X211.883Y-88.004
X214.423Y-80.384
X214.423Y-88.004
X110.49Y-69.85
X110.49Y-72.35
T4
X179.07Y-91.44
X179.07Y-93.98
X193.04Y-101.62
X193.04Y-109.22
X179.07Y-99.06
X179.07Y-101.6
X166.37Y-82.55
X166.37Y-85.09
X166.37Y-87.63
X168.91Y-82.55
X168.91Y-85.09
X168.91Y-87.63
X166.37Y-58.42
X166.37Y-60.96
X166.37Y-63.5
X166.37Y-66.04
X166.37Y-68.58
X166.37Y-71.12
X166.37Y-73.66
X166.37Y-76.2
X204.47Y-106.68
X207.01Y-106.68
X209.55Y-106.68
X185.42Y-114.3
X187.96Y-114.3
X190.5Y-114.3
X193.04Y-114.3
X195.58Y-114.3
X163.83Y-114.3
X166.37Y-114.3
X224.79Y-107.95
X224.79Y-110.49
X224.79Y-93.98
X224.79Y-96.52
X224.79Y-99.06
T5
X67.31Y-57.15
X77.47Y-57.15
X220.98Y-81.13
X220.98Y-87.63
X225.48Y-81.13
X225.48Y-87.63
X110.49Y-55.88
X110.49Y-58.42
X110.49Y-60.96
T6
X76.2Y-91.44
X76.2Y-106.68
X118.11Y-99.06
X118.11Y-114.06
T7
X106.68Y-108.48
X106.68Y-113.93
X106.68Y-119.38
T8
X66.04Y-114.3
X66.04Y-119.38
X66.04Y-91.44
X66.04Y-96.52
X66.04Y-64.77
X66.04Y-69.85
T9
X64.77Y-125.73
X228.6Y-125.73
X147.32Y-125.73
X228.6Y-52.07
X147.32Y-52.07
X64.77Y-52.07
T10
X87.88Y-113.93
T11
X93.83Y-58.42
T0
M30
